<mxfile host="app.diagrams.net" modified="2024-04-26T08:07:47.222Z" agent="Mozilla/5.0 (Windows NT 10.0; Win64; x64) AppleWebKit/537.36 (KHTML, like Gecko) Chrome/124.0.0.0 Safari/537.36" version="24.0.7" etag="VtdqpO6VTyuIqjkFGkte" type="github">
  <diagram name="Page-1" id="M8UGgRkwx8f-NWDG_K2v">
    <mxGraphModel>
      <root>
        <mxCell id="0" />
        <mxCell id="1" parent="0" />
      </root>
    </mxGraphModel>
  </diagram>
</mxfile>
